<?xml version="1.0" encoding="utf-8"?>
<!-- Generator: Adobe Illustrator 16.0.3, SVG Export Plug-In . SVG Version: 6.00 Build 0)  -->
<!DOCTYPE svg PUBLIC "-//W3C//DTD SVG 1.1//EN" "http://www.w3.org/Graphics/SVG/1.1/DTD/svg11.dtd">
<svg version="1.1" id="Layer_1" xmlns="http://www.w3.org/2000/svg" xmlns:xlink="http://www.w3.org/1999/xlink" x="0px" y="0px"
	 width="222.194px" height="17.921px" viewBox="0 0 222.194 17.921" enable-background="new 0 0 222.194 17.921"
	 xml:space="preserve">
<g>
	<path fill="#EEC12E" d="M5.849,12.622L7.724,0.2h3.823v17.495H8.948V5.149L7.049,17.695h-2.6L2.399,5.324v12.372H0V0.2h3.824
		L5.849,12.622z"/>
	<path fill="#EEC12E" d="M16.124,11.897L12.649,0.2h2.875l2.1,7.973L19.723,0.2h2.625l-3.475,11.697v5.798h-2.749V11.897z"/>
	<path fill="#EEC12E" d="M35.298,11.172v2.325c0,2.799-1.399,4.398-4.099,4.398s-4.1-1.6-4.1-4.398V4.399C27.1,1.6,28.5,0,31.199,0
		s4.099,1.6,4.099,4.399v1.7h-2.6V4.224c0-1.25-0.55-1.725-1.424-1.725c-0.875,0-1.425,0.475-1.425,1.725v9.448
		c0,1.25,0.55,1.699,1.425,1.699c0.874,0,1.424-0.449,1.424-1.699v-2.5H35.298z"/>
	<path fill="#EEC12E" d="M36.975,0.2h2.749v17.495h-2.749V0.2z"/>
	<path fill="#EEC12E" d="M40.925,0.2h8.498v2.499h-2.875v14.996h-2.749V2.699h-2.874V0.2z"/>
	<path fill="#EEC12E" d="M53.198,11.897L49.724,0.2h2.875l2.1,7.973L56.797,0.2h2.625l-3.475,11.697v5.798h-2.749V11.897z"/>
	<path fill="#EF5546" d="M70.222,12.622L72.097,0.2h3.823v17.495h-2.599V5.149l-1.899,12.546h-2.6l-2.05-12.372v12.372h-2.399V0.2
		h3.824L70.222,12.622z"/>
	<path fill="#EF5546" d="M80.498,11.897L77.023,0.2h2.875l2.1,7.973L84.097,0.2h2.625l-3.475,11.697v5.798h-2.749V11.897z"/>
	<path fill="#EF5546" d="M97.797,8.373l-1,9.322h-3.774L91.073,0.2h2.674l1.475,13.796L96.547,0.2h2.649l1.375,13.896L101.995,0.2
		h2.399l-1.949,17.495h-3.649L97.797,8.373z"/>
	<path fill="#EF5546" d="M105.548,4.399c0-2.799,1.475-4.399,4.175-4.399c2.699,0,4.174,1.6,4.174,4.399v9.098
		c0,2.799-1.475,4.398-4.174,4.398c-2.7,0-4.175-1.6-4.175-4.398V4.399z M108.298,13.672c0,1.25,0.55,1.725,1.425,1.725
		c0.874,0,1.424-0.475,1.424-1.725V4.224c0-1.25-0.55-1.725-1.424-1.725c-0.875,0-1.425,0.475-1.425,1.725V13.672z"/>
	<path fill="#EF5546" d="M121.421,17.695c-0.149-0.449-0.25-0.725-0.25-2.148v-2.75c0-1.625-0.55-2.225-1.799-2.225h-0.95v7.123
		h-2.749V0.2h4.148c2.85,0,4.074,1.325,4.074,4.024v1.375c0,1.8-0.575,2.975-1.8,3.55c1.375,0.574,1.825,1.898,1.825,3.724v2.699
		c0,0.85,0.024,1.475,0.3,2.124H121.421z M118.422,2.699v5.374h1.075c1.024,0,1.649-0.45,1.649-1.85V4.499
		c0-1.25-0.425-1.8-1.399-1.8H118.422z"/>
	<path fill="#EF5546" d="M129.321,10.723l-0.85,1.6v5.373h-2.749V0.2h2.749v7.623l3.6-7.623h2.749l-3.824,7.798l3.824,9.697h-2.824
		L129.321,10.723z"/>
	<path fill="#3ABED1" d="M145.771,12.622L147.646,0.2h3.823v17.495h-2.599V5.149l-1.899,12.546h-2.6l-2.05-12.372v12.372h-2.399V0.2
		h3.824L145.771,12.622z"/>
	<path fill="#3ABED1" d="M156.046,11.897L152.571,0.2h2.875l2.1,7.973l2.099-7.973h2.625l-3.475,11.697v5.798h-2.749V11.897z"/>
	<path fill="#3ABED1" d="M169.996,7.973h3.549v2.5h-3.549v7.223h-2.749V0.2h7.273v2.499h-4.524V7.973z"/>
	<path fill="#3ABED1" d="M178.471,0.2v13.497c0,1.249,0.55,1.699,1.425,1.699s1.425-0.45,1.425-1.699V0.2h2.6v13.321
		c0,2.8-1.4,4.399-4.1,4.399s-4.099-1.6-4.099-4.399V0.2H178.471z"/>
	<path fill="#3ABED1" d="M184.997,0.2h8.498v2.499h-2.875v14.996h-2.749V2.699h-2.874V0.2z"/>
	<path fill="#3ABED1" d="M197.32,0.2v13.497c0,1.249,0.55,1.699,1.425,1.699s1.425-0.45,1.425-1.699V0.2h2.6v13.321
		c0,2.8-1.4,4.399-4.1,4.399s-4.099-1.6-4.099-4.399V0.2H197.32z"/>
	<path fill="#3ABED1" d="M210.395,17.695c-0.149-0.449-0.25-0.725-0.25-2.148v-2.75c0-1.625-0.55-2.225-1.799-2.225h-0.95v7.123
		h-2.749V0.2h4.148c2.85,0,4.074,1.325,4.074,4.024v1.375c0,1.8-0.575,2.975-1.8,3.55c1.375,0.574,1.825,1.898,1.825,3.724v2.699
		c0,0.85,0.024,1.475,0.3,2.124H210.395z M207.396,2.699v5.374h1.075c1.024,0,1.649-0.45,1.649-1.85V4.499
		c0-1.25-0.425-1.8-1.399-1.8H207.396z"/>
	<path fill="#3ABED1" d="M217.445,7.573h3.774v2.499h-3.774v5.124h4.749v2.499h-7.498V0.2h7.498v2.499h-4.749V7.573z"/>
</g>
</svg>
