<?xml version="1.0" encoding="utf-8"?>
<!-- Generator: Adobe Illustrator 16.0.3, SVG Export Plug-In . SVG Version: 6.00 Build 0)  -->
<!DOCTYPE svg PUBLIC "-//W3C//DTD SVG 1.1//EN" "http://www.w3.org/Graphics/SVG/1.1/DTD/svg11.dtd">
<svg version="1.1" id="Layer_1" xmlns="http://www.w3.org/2000/svg" xmlns:xlink="http://www.w3.org/1999/xlink" x="0px" y="0px"
	 width="549.397px" height="48.365px" viewBox="0 0 549.397 48.365" enable-background="new 0 0 549.397 48.365"
	 xml:space="preserve">
<g>
	<path fill="#F0C419" d="M14.006,30.228l4.489-29.749h9.16v41.899h-6.226V12.33L16.88,42.378h-6.226L5.746,12.75v29.628H0V0.479
		h9.158L14.006,30.228z"/>
	<path fill="#F0C419" d="M38.602,28.492l-8.32-28.013h6.884l5.028,19.095l5.027-19.095h6.286l-8.321,28.013v13.886h-6.584V28.492z"
		/>
	<path fill="#F0C419" d="M84.509,26.757v5.565c0,6.706-3.353,10.535-9.818,10.535c-6.465,0-9.817-3.829-9.817-10.535V10.534
		C64.874,3.83,68.226,0,74.691,0c6.465,0,9.818,3.83,9.818,10.534v4.07h-6.227v-4.489c0-2.993-1.316-4.13-3.412-4.13
		c-2.094,0-3.412,1.137-3.412,4.13v22.627c0,2.993,1.318,4.07,3.412,4.07c2.096,0,3.412-1.077,3.412-4.07v-5.985H84.509z"/>
	<path fill="#F0C419" d="M88.513,0.479h6.583v41.899h-6.583V0.479z"/>
	<path fill="#F0C419" d="M97.967,0.479h20.352v5.985h-6.882v35.914h-6.585V6.464h-6.884V0.479z"/>
	<path fill="#F0C419" d="M127.353,28.492l-8.32-28.013h6.884l5.028,19.095l5.028-19.095h6.285l-8.319,28.013v13.886h-6.585V28.492z"
		/>
	<path fill="#F0C419" d="M140.102,42.378v-6.344h6.344v5.688l-2.873,6.644h-2.693l1.735-5.987H140.102z"/>
	<path fill="#E84A3C" d="M174.455,30.228l4.489-29.749h9.159v41.899h-6.226V12.33l-4.549,30.048h-6.226l-4.908-29.628v29.628h-5.746
		V0.479h9.158L174.455,30.228z"/>
	<path fill="#E84A3C" d="M199.051,28.492l-8.32-28.013h6.884l5.028,19.095l5.028-19.095h6.286l-8.32,28.013v13.886h-6.585V28.492z"
		/>
	<path fill="#E84A3C" d="M240.466,20.052l-2.394,22.326h-9.04l-4.668-41.899h6.405l3.532,33.041l3.173-33.041h6.344l3.292,33.281
		l3.412-33.281h5.747l-4.67,41.899h-8.739L240.466,20.052z"/>
	<path fill="#E84A3C" d="M259.016,10.534C259.016,3.83,262.547,0,269.013,0c6.466,0,9.997,3.83,9.997,10.534v21.788
		c0,6.706-3.531,10.535-9.997,10.535c-6.465,0-9.997-3.829-9.997-10.535V10.534z M265.601,32.742c0,2.993,1.317,4.131,3.412,4.131
		c2.095,0,3.412-1.138,3.412-4.131V10.115c0-2.993-1.316-4.13-3.412-4.13c-2.094,0-3.412,1.137-3.412,4.13V32.742z"/>
	<path fill="#E84A3C" d="M297.021,42.378c-0.358-1.077-0.598-1.734-0.598-5.146v-6.584c0-3.891-1.316-5.328-4.31-5.328h-2.274
		v17.059h-6.584V0.479h9.936c6.824,0,9.758,3.172,9.758,9.636v3.292c0,4.31-1.377,7.124-4.311,8.5
		c3.292,1.376,4.37,4.548,4.37,8.917v6.466c0,2.035,0.061,3.531,0.718,5.087H297.021z M289.84,6.464v12.871h2.574
		c2.453,0,3.951-1.079,3.951-4.432v-4.13c0-2.992-1.019-4.31-3.354-4.31H289.84z"/>
	<path fill="#E84A3C" d="M315.934,25.679l-2.035,3.831v12.868h-6.584V0.479h6.584v18.257l8.619-18.257h6.584l-9.158,18.674
		l9.158,23.225h-6.763L315.934,25.679z"/>
	<path fill="#E84A3C" d="M332.091,42.378v-6.344h6.345v5.688l-2.873,6.644h-2.693l1.734-5.987H332.091z"/>
	<path fill="#3BBDD2" d="M366.444,30.228l4.49-29.749h9.158v41.899h-6.226V12.33l-4.55,30.048h-6.226l-4.907-29.628v29.628h-5.746
		V0.479h9.158L366.444,30.228z"/>
	<path fill="#3BBDD2" d="M391.04,28.492l-8.32-28.013h6.885l5.027,19.095l5.027-19.095h6.286l-8.319,28.013v13.886h-6.586V28.492z"
		/>
	<path fill="#3BBDD2" d="M424.435,19.095h8.501v5.985h-8.501v17.298h-6.583V0.479h17.418v5.985h-10.835V19.095z"/>
	<path fill="#3BBDD2" d="M444.723,0.479v32.323c0,2.993,1.317,4.071,3.412,4.071c2.096,0,3.412-1.078,3.412-4.071V0.479h6.226
		v31.905c0,6.702-3.352,10.534-9.817,10.534c-6.465,0-9.815-3.832-9.815-10.534V0.479H444.723z"/>
	<path fill="#3BBDD2" d="M460.342,0.479h20.352v5.985h-6.883v35.914h-6.585V6.464h-6.884V0.479z"/>
	<path fill="#3BBDD2" d="M489.847,0.479v32.323c0,2.993,1.317,4.071,3.412,4.071c2.096,0,3.412-1.078,3.412-4.071V0.479h6.226
		v31.905c0,6.702-3.353,10.534-9.816,10.534c-6.465,0-9.817-3.832-9.817-10.534V0.479H489.847z"/>
	<path fill="#3BBDD2" d="M521.149,42.378c-0.359-1.077-0.6-1.734-0.6-5.146v-6.584c0-3.891-1.315-5.328-4.31-5.328h-2.275v17.059
		h-6.583V0.479h9.936c6.824,0,9.758,3.172,9.758,9.636v3.292c0,4.31-1.378,7.124-4.31,8.5c3.292,1.376,4.369,4.548,4.369,8.917
		v6.466c0,2.035,0.061,3.531,0.719,5.087H521.149z M513.965,6.464v12.871h2.575c2.454,0,3.95-1.079,3.95-4.432v-4.13
		c0-2.992-1.018-4.31-3.352-4.31H513.965z"/>
	<path fill="#3BBDD2" d="M538.023,18.137h9.04v5.984h-9.04v12.273h11.374v5.983H531.44V0.479h17.957v5.985h-11.374V18.137z"/>
</g>
</svg>
