<?xml version="1.0" encoding="utf-8"?>
<!-- Generator: Adobe Illustrator 16.0.3, SVG Export Plug-In . SVG Version: 6.00 Build 0)  -->
<!DOCTYPE svg PUBLIC "-//W3C//DTD SVG 1.1//EN" "http://www.w3.org/Graphics/SVG/1.1/DTD/svg11.dtd">
<svg version="1.1" id="Layer_1" xmlns="http://www.w3.org/2000/svg" xmlns:xlink="http://www.w3.org/1999/xlink" x="0px" y="0px"
	 width="138px" height="102px" viewBox="0 0 138 102" enable-background="new 0 0 138 102" xml:space="preserve">
<g>
	<path fill="#F0C419" d="M29.48,21.122l3.146-20.846h6.417v29.359h-4.362V8.581l-3.187,21.054h-4.362L23.692,8.875v20.761h-4.025
		V0.276h6.417L29.48,21.122z"/>
	<path fill="#F0C419" d="M46.713,19.905l-5.83-19.629h4.823l3.523,13.379l3.522-13.379h4.404l-5.83,19.629v9.73h-4.614V19.905z"/>
	<path fill="#F0C419" d="M78.878,18.688v3.901c0,4.696-2.349,7.382-6.879,7.382c-4.53,0-6.878-2.686-6.878-7.382V7.322
		c0-4.697,2.349-7.382,6.878-7.382c4.53,0,6.879,2.685,6.879,7.382v2.852h-4.362V7.029c0-2.096-0.923-2.894-2.391-2.894
		s-2.391,0.798-2.391,2.894v15.854c0,2.097,0.923,2.852,2.391,2.852s2.391-0.755,2.391-2.852v-4.194H78.878z"/>
	<path fill="#F0C419" d="M81.685,0.276h4.613v29.359h-4.613V0.276z"/>
	<path fill="#F0C419" d="M88.309,0.276h14.26V4.47h-4.822v25.165h-4.614V4.47h-4.823V0.276z"/>
	<path fill="#F0C419" d="M108.898,19.905l-5.83-19.629h4.823l3.523,13.379l3.522-13.379h4.404l-5.83,19.629v9.73h-4.613V19.905z"/>
	<path fill="#E84A3C" d="M20.108,57.063l3.146-20.844h6.417v29.359h-4.362V44.522l-3.187,21.055H17.76l-3.439-20.761v20.761h-4.026
		V36.218h6.417L20.108,57.063z"/>
	<path fill="#E84A3C" d="M37.342,55.846l-5.83-19.627h4.823l3.522,13.379l3.523-13.379h4.404l-5.829,19.627v9.731h-4.614V55.846z"/>
	<path fill="#E84A3C" d="M66.36,49.933l-1.677,15.645h-6.333l-3.271-29.359h4.488l2.475,23.152l2.223-23.152h4.445l2.307,23.319
		l2.391-23.319h4.026l-3.271,29.359h-6.124L66.36,49.933z"/>
	<path fill="#E84A3C" d="M79.356,43.264c0-4.697,2.475-7.381,7.005-7.381c4.529,0,7.004,2.684,7.004,7.381V58.53
		c0,4.697-2.475,7.382-7.004,7.382c-4.53,0-7.005-2.685-7.005-7.382V43.264z M83.97,58.824c0,2.097,0.924,2.895,2.392,2.895
		s2.391-0.798,2.391-2.895V42.971c0-2.097-0.923-2.894-2.391-2.894s-2.392,0.796-2.392,2.894V58.824z"/>
	<path fill="#E84A3C" d="M105.985,65.577c-0.251-0.755-0.419-1.216-0.419-3.607v-4.613c0-2.727-0.922-3.732-3.02-3.732h-1.594
		v11.953H96.34V36.218h6.962c4.781,0,6.837,2.223,6.837,6.753v2.307c0,3.019-0.966,4.99-3.02,5.955
		c2.306,0.964,3.062,3.188,3.062,6.249v4.529c0,1.426,0.041,2.475,0.503,3.565H105.985z M100.953,40.413v9.017h1.804
		c1.72,0,2.768-0.755,2.768-3.104v-2.894c0-2.098-0.713-3.02-2.349-3.02H100.953z"/>
	<path fill="#E84A3C" d="M119.236,53.876l-1.427,2.684v9.018h-4.612V36.218h4.612V49.01l6.04-12.792h4.613l-6.417,13.085
		l6.417,16.273h-4.739L119.236,53.876z"/>
	<path fill="#3BBDD2" d="M9.813,93.006l3.146-20.845h6.417v29.358h-4.362V80.465l-3.188,21.055H7.465L4.026,80.759v20.761H0V72.161
		h6.417L9.813,93.006z"/>
	<path fill="#3BBDD2" d="M27.046,91.789l-5.829-19.628h4.823l3.522,13.379l3.523-13.379h4.404l-5.83,19.628v9.73h-4.614V91.789z"/>
	<path fill="#3BBDD2" d="M50.445,85.204h5.956v4.194h-5.956v12.121h-4.613V72.161h12.204v4.194h-7.591V85.204z"/>
	<path fill="#3BBDD2" d="M64.659,72.161V94.81c0,2.096,0.923,2.852,2.391,2.852c1.469,0,2.391-0.756,2.391-2.852V72.161h4.362
		v22.354c0,4.697-2.349,7.382-6.878,7.382s-6.878-2.685-6.878-7.382V72.161H64.659z"/>
	<path fill="#3BBDD2" d="M75.603,72.161h14.26v4.194H85.04v25.164h-4.614V76.355h-4.823V72.161z"/>
	<path fill="#3BBDD2" d="M96.275,72.161V94.81c0,2.096,0.924,2.852,2.391,2.852c1.469,0,2.391-0.756,2.391-2.852V72.161h4.362
		v22.354c0,4.697-2.349,7.382-6.878,7.382c-4.53,0-6.878-2.685-6.878-7.382V72.161H96.275z"/>
	<path fill="#3BBDD2" d="M118.207,101.52c-0.251-0.755-0.419-1.216-0.419-3.606v-4.614c0-2.726-0.922-3.732-3.02-3.732h-1.594
		v11.953h-4.613V72.161h6.962c4.781,0,6.837,2.223,6.837,6.753v2.306c0,3.021-0.966,4.991-3.02,5.956
		c2.307,0.965,3.062,3.188,3.062,6.249v4.529c0,1.426,0.041,2.475,0.503,3.565H118.207z M113.175,76.355v9.017h1.804
		c1.72,0,2.768-0.755,2.768-3.104v-2.894c0-2.098-0.713-3.02-2.349-3.02H113.175z"/>
	<path fill="#3BBDD2" d="M130.031,84.533h6.334v4.194h-6.334v8.598H138v4.194h-12.581V72.161H138v4.194h-7.969V84.533z"/>
</g>
</svg>
