<?xml version="1.0" encoding="utf-8"?>
<!-- Generator: Adobe Illustrator 16.0.3, SVG Export Plug-In . SVG Version: 6.00 Build 0)  -->
<!DOCTYPE svg PUBLIC "-//W3C//DTD SVG 1.1//EN" "http://www.w3.org/Graphics/SVG/1.1/DTD/svg11.dtd">
<svg version="1.1" id="Layer_1" xmlns="http://www.w3.org/2000/svg" xmlns:xlink="http://www.w3.org/1999/xlink" x="0px" y="0px"
	 width="280px" height="150px" viewBox="0 0 280 150" enable-background="new 0 0 280 150" xml:space="preserve">
<g>
	<g>
		<path fill="#245671" d="M90.812,42.283C70.626,54.121,50.041,52.594,49.959,52.587c0.001,0,0.002,0,0.002,0h-0.003h-0.002h0.001
			c-0.088,0.007-20.667,1.534-40.853-10.304c0,0-3.244,24.24,1.697,41.125c0,0,10.652-24.783,39.156-30.821
			c28.499,6.038,39.153,30.821,39.153,30.821C94.053,66.522,90.812,42.283,90.812,42.283z"/>
		<path fill="#36C0D3" d="M6.851,88.17c0-23.801,19.298-43.102,43.104-43.102c23.806,0,43.102,19.301,43.102,43.102
			c0,23.807-19.296,57.99-43.102,57.99C26.148,146.16,6.851,111.977,6.851,88.17z"/>
		<path fill="#245671" d="M81.015,72.797c-2.004-8.364-8.906-14.43-16.417-14.43c-1.099,0-2.196,0.128-3.269,0.386
			c-4.23,1.017-7.708,3.879-9.804,8.063c-0.726,1.448-1.251,3.004-1.569,4.613c-0.325-1.609-0.848-3.165-1.577-4.613
			c-2.093-4.185-5.573-7.047-9.8-8.063c-1.068-0.257-2.168-0.386-3.268-0.386c-7.507,0-14.416,6.065-16.419,14.43
			c-1.114,4.636-0.627,9.388,1.371,13.389c2.093,4.179,5.572,7.05,9.801,8.058c1.067,0.256,2.167,0.393,3.265,0.393
			c0.001,0,0,0,0.001,0c7.51,0,14.419-6.074,16.422-14.432c0.076-0.312,0.141-0.623,0.204-0.936
			c0.056,0.313,0.125,0.624,0.196,0.936c2.007,8.357,8.912,14.43,16.423,14.432c0,0,0,0,0.001,0c1.101,0,2.198-0.137,3.267-0.393
			c4.228-1.008,7.712-3.879,9.803-8.058C81.643,82.186,82.127,77.434,81.015,72.797z"/>
		<g>
			<g>
				<g>
					<path fill="#FFFFFF" d="M77.808,75.221c1.93,8.021-1.986,15.852-8.731,17.469c-6.755,1.619-13.787-3.578-15.713-11.612
						c-1.927-8.028,1.983-15.846,8.738-17.467C68.848,61.99,75.882,67.186,77.808,75.221z"/>
				</g>
				<g>
					<path fill="#603813" d="M64.978,80.398c-1.293,0.311-2.635-0.689-3.003-2.219c-0.139-0.586-0.114-1.164,0.036-1.67
						c-0.624-0.131-1.265-0.143-1.907,0.011c-2.704,0.646-4.267,3.78-3.497,6.993c0.77,3.223,3.59,5.301,6.292,4.648
						c2.702-0.643,4.271-3.779,3.495-6.992c-0.11-0.461-0.274-0.902-0.464-1.307C65.666,80.115,65.344,80.308,64.978,80.398z"/>
				</g>
			</g>
			<g>
				<g>
					<path fill="#FFFFFF" d="M22.098,75.221c-1.926,8.021,1.987,15.852,8.737,17.469c6.748,1.619,13.786-3.578,15.711-11.612
						c1.925-8.028-1.988-15.846-8.738-17.467C31.061,61.99,24.023,67.186,22.098,75.221z"/>
				</g>
				<g>
					<path fill="#603813" d="M34.931,80.398c1.29,0.311,2.631-0.689,3.002-2.219c0.141-0.586,0.117-1.164-0.036-1.67
						c0.622-0.131,1.269-0.143,1.904,0.011c2.704,0.646,4.272,3.78,3.497,6.993c-0.768,3.223-3.585,5.301-6.293,4.648
						c-2.701-0.643-4.265-3.779-3.494-6.992c0.11-0.461,0.276-0.902,0.467-1.307C34.243,80.115,34.563,80.308,34.931,80.398z"/>
				</g>
			</g>
		</g>
		<polygon fill="#EEC12F" points="57.392,92.167 49.955,104.684 42.514,92.167 		"/>
		<g>
			<path fill="#245671" d="M30.92,114.916c0,0,1.977,1.23,3.545,0C34.465,114.916,32.649,117.881,30.92,114.916z"/>
			<path fill="#245671" d="M38.505,114.916c0,0,1.981,1.23,3.546,0C42.051,114.916,40.239,117.881,38.505,114.916z"/>
			<path fill="#245671" d="M46.094,114.916c0,0,1.978,1.23,3.546,0C49.64,114.916,47.824,117.881,46.094,114.916z"/>
			<path fill="#245671" d="M53.679,114.916c0,0,1.981,1.23,3.549,0C57.228,114.916,55.414,117.881,53.679,114.916z"/>
			<path fill="#245671" d="M61.269,114.916c0,0,1.978,1.23,3.545,0C64.813,114.916,62.998,117.881,61.269,114.916z"/>
			<path fill="#245671" d="M68.854,114.916c0,0,1.982,1.23,3.549,0C72.402,114.916,70.59,117.881,68.854,114.916z"/>
			<path fill="#245671" d="M34.465,120.27c0,0,1.979,1.238,3.546,0C38.011,120.27,36.195,123.238,34.465,120.27z"/>
			<path fill="#245671" d="M42.051,120.27c0,0,1.981,1.238,3.549,0C45.6,120.27,43.786,123.238,42.051,120.27z"/>
			<path fill="#245671" d="M49.64,120.27c0,0,1.979,1.238,3.546,0C53.186,120.27,51.37,123.238,49.64,120.27z"/>
			<path fill="#245671" d="M57.228,120.27c0,0,1.979,1.238,3.545,0C60.772,120.27,58.96,123.238,57.228,120.27z"/>
			<path fill="#245671" d="M64.813,120.27c0,0,1.98,1.238,3.547,0C68.36,120.27,66.544,123.238,64.813,120.27z"/>
			<path fill="#245671" d="M37.188,125.219c0,0,1.979,1.232,3.545,0C40.732,125.219,38.916,128.188,37.188,125.219z"/>
			<path fill="#245671" d="M44.774,125.219c0,0,1.979,1.232,3.548,0C48.322,125.219,46.506,128.188,44.774,125.219z"/>
			<path fill="#245671" d="M52.36,125.219c0,0,1.981,1.232,3.546,0C55.906,125.219,54.091,128.188,52.36,125.219z"/>
			<path fill="#245671" d="M59.949,125.219c0,0,1.978,1.232,3.548,0C63.497,125.219,61.681,128.188,59.949,125.219z"/>
			<path fill="#245671" d="M40.486,129.678c0,0,1.979,1.23,3.546,0C44.032,129.678,42.216,132.645,40.486,129.678z"/>
			<path fill="#245671" d="M48.071,129.678c0,0,1.98,1.23,3.548,0C51.619,129.678,49.806,132.645,48.071,129.678z"/>
			<path fill="#245671" d="M55.66,129.678c0,0,1.979,1.23,3.547,0C59.207,129.678,57.39,132.645,55.66,129.678z"/>
			<path fill="#245671" d="M43.373,133.873c0,0,1.977,1.246,3.547,0C46.92,133.873,45.103,136.842,43.373,133.873z"/>
			<path fill="#245671" d="M50.956,133.873c0,0,1.983,1.246,3.546,0C54.502,133.873,52.693,136.842,50.956,133.873z"/>
			<path fill="#245671" d="M47.411,138.492c0,0,1.983,1.242,3.545,0C50.956,138.492,49.146,141.465,47.411,138.492z"/>
		</g>
		<g>
			<g>
				<path fill="#EEC12F" d="M56.496,147.322c0,1.486-1.199,2.678-2.683,2.678l0,0c-1.48,0-2.677-1.191-2.677-2.678v-4.615
					c0-1.486,1.196-2.678,2.677-2.678l0,0c1.483,0,2.683,1.191,2.683,2.678V147.322z"/>
				<path fill="#EEC12F" d="M61.595,147.322c0,1.486-1.203,2.678-2.682,2.678l0,0c-1.479,0-2.677-1.191-2.677-2.678v-4.615
					c0-1.486,1.198-2.678,2.677-2.678l0,0c1.479,0,2.682,1.191,2.682,2.678V147.322z"/>
				<path fill="#EEC12F" d="M66.691,147.322c0,1.486-1.199,2.678-2.679,2.678l0,0c-1.478,0-2.683-1.191-2.683-2.678v-4.615
					c0-1.486,1.205-2.678,2.683-2.678l0,0c1.479,0,2.679,1.191,2.679,2.678V147.322z"/>
			</g>
			<g>
				<path fill="#EEC12F" d="M38.574,147.322c0,1.486-1.198,2.678-2.681,2.678l0,0c-1.482,0-2.681-1.191-2.681-2.678v-4.615
					c0-1.486,1.198-2.678,2.681-2.678l0,0c1.482,0,2.681,1.191,2.681,2.678V147.322z"/>
				<path fill="#EEC12F" d="M43.674,147.322c0,1.486-1.203,2.678-2.683,2.678l0,0c-1.479,0-2.678-1.191-2.678-2.678v-4.615
					c0-1.486,1.199-2.678,2.678-2.678l0,0c1.479,0,2.683,1.191,2.683,2.678V147.322z"/>
				<path fill="#EEC12F" d="M48.769,147.322c0,1.486-1.197,2.678-2.679,2.678l0,0c-1.478,0-2.68-1.191-2.68-2.678v-4.615
					c0-1.486,1.202-2.678,2.68-2.678l0,0c1.481,0,2.679,1.191,2.679,2.678V147.322z"/>
			</g>
		</g>
		<path fill="#245671" d="M17.706,91.483c-4.107-1.694-14.569-0.013-17.071,8.346c-4.051,13.509,12.044,32.665,26.771,29.085
			c0,0-6.781-5.707-3.326-14.475C27.53,105.674,27.533,95.543,17.706,91.483z"/>
		<g>
			
				<linearGradient id="SVGID_1_" gradientUnits="userSpaceOnUse" x1="-834.1934" y1="-6502.9971" x2="-833.6934" y2="-6502.9971" gradientTransform="matrix(30.6238 28.0521 28.0521 -30.6238 208030.375 -175654.1563)">
				<stop  offset="0" style="stop-color:#D3D6D9"/>
				<stop  offset="0.2311" style="stop-color:#CCCED1"/>
				<stop  offset="0.5861" style="stop-color:#B7BABC"/>
				<stop  offset="0.9944" style="stop-color:#989A9B"/>
				<stop  offset="1" style="stop-color:#989A9B"/>
			</linearGradient>
			<polyline fill="url(#SVGID_1_)" points="68.818,97.611 68.346,98.191 68.346,98.191 68.818,97.611 68.818,97.611 			"/>
			<path fill="#BDCCD4" d="M52.729,100.015l-0.369,2.36v2.309l-0.741,1.566l0.741,2.5l0.511,3l1.262,1.184l2.103,0.566l1.889,0.875
				h1.824h3.092l2.545,0.564l1.841,0.636l1.427,1.421l1.774,0.879l1.84,1.5L98.756,140.5l5.119-6.627l-30.5-25.248l-0.907-2.125
				v-3.125l-0.162-2.5L70.628,99l-1.253-0.809l-2.783-1.816l-1.778-1.738l-2.157,0.119l-1.884-0.119l1.478,2.975l1.761,2.264
				l0.803,2.25l0.105,0.629l-0.105,1.93h-0.803l-0.97,0.941L61.12,106l-1.171,0.375l-1.034-1l-2.419-3l-1.231-1.875l-1.586-0.75"/>
			<path fill="#7B7E82" d="M68.818,97.611l-0.562,0.688c0.938,0.771,1.676,1.471,2.188,2.078c0.49,0.584,0.779,1.254,0.968,2.033
				c0.183,0.779,0.262,1.65,0.329,2.556c0.064,0.745,0.119,1.505,0.265,2.253c0.146,0.736,0.384,1.471,0.819,2.144l0.002,0.001
				c0.126,0.181,0.286,0.373,0.567,0.658c0.837,0.848,2.756,2.582,7.354,6.322c7.75,6.301,18.492,14.553,18.604,14.645l0.541-0.717
				l-0.557,0.701l0.01,0.01l0.006,0.006l3.448,2.807c0.032,0.018,0.053,0.049,0.055,0.117c0,0.053-0.018,0.113-0.063,0.168
				l0.001-0.002l-4.114,5.057c-0.053,0.07-0.13,0.1-0.185,0.1l-0.096-0.033l-0.031-0.025l-0.037-0.027l-0.004-0.002l-0.496,0.736
				l0.568-0.68c-0.103-0.088-10.696-8.92-19.086-15.742c-2.46-1.992-4.491-3.625-6.088-4.896c-1.594-1.256-2.746-2.148-3.473-2.664
				c-1.487-1.063-2.712-1.707-3.846-2.066c-1.13-0.375-2.143-0.459-3.135-0.457c-0.378,0-0.759,0.012-1.147,0.023h0.002
				c-0.407,0.012-0.824,0.023-1.26,0.023c-0.862,0-1.804-0.047-2.914-0.227l0.001,0.002c-0.991-0.168-1.811-0.529-2.484-1.076
				c-0.644-0.527-1.173-1.25-1.567-2.16c-0.394-0.922-0.644-2.043-0.719-3.332c-0.02-0.298-0.027-0.596-0.027-0.889
				c-0.003-1.814,0.327-3.544,0.618-4.469c0.118-0.375,0.244-0.651,0.327-0.771c0.043-0.052,0.065-0.067,0.065-0.067l-0.022-0.04
				l0.016,0.043l0.007-0.003l-0.022-0.04l0.016,0.043l-0.021-0.052l0.014,0.055l0.007-0.003l-0.021-0.052l0.014,0.055v-0.003v0.004
				v-0.001v-0.003v0.004l0.007-0.001l-0.002-0.016v0.016h0.002l-0.002-0.016v0.016l0.056,0.013c0.046,0.016,0.102,0.059,0.167,0.113
				l0.002,0.002c0.18,0.148,0.479,0.459,0.822,0.885c0.342,0.412,0.74,0.928,1.166,1.488c0.5,0.654,1.034,1.349,1.563,1.99
				c0.529,0.643,1.044,1.215,1.562,1.632c0.411,0.335,0.908,0.448,1.381,0.448c0.434-0.002,0.878-0.092,1.347-0.245
				c0.465-0.144,0.958-0.351,1.475-0.626c0.672-0.357,1.29-0.766,1.81-1.143c0.518-0.387,0.921-0.72,1.188-0.992l0.332-0.346
				l-0.1-0.471c-0.054-0.258-0.179-0.605-0.491-1.219c-0.316-0.614-0.824-1.482-1.667-2.722c-1.082-1.601-2.17-3.023-2.191-3.052
				l0.002,0.001l-0.014-0.019l-0.708,0.543l0.755-0.473l-0.011-0.018l-0.009-0.014l-0.005-0.008c-0.168-0.246-0.23-0.484-0.23-0.68
				c0.002-0.207,0.056-0.354,0.168-0.498l0.001-0.002c0.151-0.171,0.35-0.27,0.629-0.275c0.153,0,0.32,0.035,0.507,0.121
				c0.104,0.047,0.38,0.185,0.727,0.383c1.042,0.613,2.819,1.785,4.367,3.037L68.818,97.611l0.562-0.697
				c-1.096-0.881-2.273-1.711-3.267-2.363c-0.498-0.326-0.951-0.605-1.328-0.824c-0.379-0.219-0.672-0.381-0.905-0.48
				c-0.396-0.175-0.813-0.264-1.224-0.264c-0.753-0.005-1.496,0.314-1.999,0.91h0.003c-0.392,0.471-0.584,1.059-0.582,1.639
				c0,0.578,0.187,1.159,0.533,1.667l0.736-0.493l-0.75,0.473l0.011,0.018l0.021,0.034l0.036,0.052l0.001,0.002
				c0.001,0.002,1.08,1.415,2.129,2.959c0.814,1.209,1.285,2.021,1.554,2.543c0.271,0.521,0.335,0.755,0.339,0.777l0.87-0.182
				l-0.639-0.627c-0.154,0.16-0.515,0.471-0.97,0.805c-0.452,0.339-1.009,0.705-1.583,0.999c-0.444,0.242-0.844,0.408-1.184,0.522
				c-0.342,0.1-0.622,0.146-0.807,0.145c-0.103,0-0.171-0.013-0.212-0.025l-0.04-0.015l-0.007-0.005
				c-0.342-0.277-0.822-0.789-1.313-1.389c-0.496-0.6-1.023-1.277-1.515-1.93c-0.433-0.563-0.837-1.09-1.209-1.543
				c-0.378-0.452-0.716-0.838-1.074-1.133l0.003,0.001c-0.119-0.099-0.285-0.221-0.513-0.334c-0.219-0.103-0.509-0.2-0.839-0.2
				c-0.081,0-0.156,0.006-0.233,0.016h0.006c-0.276,0.034-0.548,0.143-0.767,0.291c-0.335,0.225-0.543,0.526-0.705,0.826
				c-0.16,0.302-0.273,0.621-0.379,0.945c-0.36,1.139-0.702,2.984-0.705,5.012c0,0.328,0.011,0.664,0.03,0.997
				c0.086,1.456,0.372,2.771,0.858,3.917c0.49,1.146,1.187,2.111,2.081,2.85c0.929,0.754,2.06,1.238,3.314,1.443h0.002
				c1.225,0.211,2.277,0.264,3.206,0.264c0.469,0,0.905-0.014,1.313-0.025h0.002c0.384-0.012,0.743-0.021,1.091-0.021
				c0.9,0,1.679,0.059,2.585,0.352c0.905,0.295,1.97,0.832,3.357,1.838c0.679,0.479,1.823,1.359,3.408,2.607
				c1.585,1.26,3.61,2.893,6.064,4.881c8.382,6.814,18.964,15.637,19.078,15.73l0.032,0.033l0.043,0.027l0.004,0.004l0.492-0.752
				l-0.559,0.701c0.354,0.287,0.792,0.424,1.217,0.422c0.585,0,1.169-0.264,1.564-0.75l4.116-5.064l0.003-0.004
				c0.305-0.367,0.459-0.828,0.459-1.279c0.003-0.555-0.24-1.125-0.712-1.5l-3.463-2.82l-0.008-0.008l-0.004-0.002l-0.007-0.006
				l-0.009-0.006c-0.099-0.08-10.846-8.334-18.561-14.609c-3.051-2.477-4.911-4.07-6.031-5.076
				c-0.561-0.502-0.933-0.865-1.172-1.109c-0.238-0.244-0.354-0.391-0.358-0.396l0.002,0.001c-0.267-0.399-0.438-0.897-0.557-1.507
				c-0.122-0.607-0.178-1.301-0.241-2.047c-0.069-0.901-0.147-1.869-0.373-2.822c-0.227-0.965-0.619-1.932-1.34-2.781
				c-0.616-0.718-1.427-1.495-2.424-2.309L68.818,97.611"/>
		</g>
		<path fill="#245671" d="M82.167,91.483c4.109-1.694,14.569-0.013,17.071,8.346c4.053,13.509-12.046,32.665-26.771,29.085
			c0,0,6.776-5.707,3.33-14.475C72.345,105.674,72.342,95.543,82.167,91.483z"/>
		<g>
			<g>
				<path fill="#EEC12F" d="M85.378,52.251c-0.437-4.386-2.742-5.217-3.539-5.364c-1.528-13.278-8.227-24.061-20.721-28.125
					c-0.162-1.437-0.768-2.733-1.68-3.76c-1.244-1.389-3.05-2.27-5.067-2.27h-0.915c-0.054,0.425-0.169,0.826-0.356,1.191
					c-0.579,1.11-1.729,1.874-3.077,1.874h-0.609h-0.635c-1.338,0-2.498-0.766-3.065-1.886c-0.186-0.358-0.314-0.759-0.364-1.179
					h-0.918c-1.97,0-3.75,0.845-4.989,2.195c-0.934,1.012-1.559,2.315-1.739,3.746C24.939,22.682,18.377,33.53,16.893,46.9
					c-0.85,0.186-3.038,1.091-3.444,5.351c-0.072,0.683-0.102,1.429-0.056,2.295c0.143,0.294,0.319,0.563,0.495,0.817h10.166h13.104
					h0.488h9.321h0.669h13.531h0.484h13.092H84.89c0.188-0.26,0.384-0.522,0.539-0.817C85.465,53.68,85.429,52.934,85.378,52.251z"
					/>
				<path fill="#F59B2B" d="M61.12,18.762c0,0,0,0-0.002,0c-0.162-1.437-0.768-2.733-1.68-3.76c-1.244-1.389-3.05-2.27-5.067-2.27
					h-0.915c-0.054,0.425-0.169,0.826-0.356,1.191c-0.579,1.11-1.729,1.874-3.077,1.874h-0.609h-0.635
					c-1.338,0-2.498-0.766-3.065-1.886c-0.186-0.358-0.314-0.759-0.364-1.179h-0.918c-1.97,0-3.75,0.845-4.989,2.195
					c-0.934,1.012-1.559,2.315-1.739,3.746c-0.004,0.001-0.006,0.002-0.008,0.004v33.55H61.12V18.762z"/>
				<path fill="#F59B2B" d="M81.839,46.887c-1.528-13.278-8.227-24.061-20.721-28.125c-0.162-1.437-0.768-2.733-1.68-3.76
					c-1.244-1.389-3.05-2.27-5.067-2.27h-0.915c-0.054,0.425-0.169,0.826-0.356,1.191c-0.579,1.11-1.729,1.874-3.077,1.874h-0.609
					H49.41v39.568h11.758h0.484h13.092H84.89c0.188-0.26,0.384-0.522,0.539-0.817c0.036-0.866,0-1.613-0.051-2.295
					C84.941,47.865,82.636,47.034,81.839,46.887z"/>
				<path fill="#D88A25" d="M61.12,52.226V18.762c0,0,0,0-0.002,0c-0.162-1.437-0.768-2.733-1.68-3.76
					c-1.244-1.389-3.05-2.27-5.067-2.27h-0.915c-0.054,0.425-0.169,0.826-0.356,1.191c-0.579,1.11-1.729,1.874-3.077,1.874h-0.609
					H49.41v36.43H61.12z"/>
				<path fill="#F59B2B" d="M86.456,57.276c0,1.392-0.894,2.511-1.985,2.511H14.34c-1.098,0-1.979-1.12-1.979-2.511l0,0
					c0-1.388,0.881-2.521,1.979-2.521h70.131C85.563,54.756,86.456,55.889,86.456,57.276L86.456,57.276z"/>
				<path fill="#D88A25" d="M84.471,54.756H49.41v5.032h35.061c1.092,0,1.985-1.12,1.985-2.511
					C86.456,55.889,85.563,54.756,84.471,54.756z"/>
			</g>
		</g>
	</g>
	<g>
		<path fill="#245671" d="M261.037,4.696H125.172c-10.462,0-18.954,5.779-18.954,12.908v37.109V75.68v39.26l18.331-26.371
			c0.211,0.004,0.416,0.021,0.623,0.021h135.865c10.477,0,18.963-5.779,18.963-12.91V17.604C280,10.475,271.514,4.696,261.037,4.696
			z"/>
		<g>
			<path fill="#FFFFFF" d="M131.458,56.378h-2.984l-0.511-3.415h-3.629l-0.512,3.415h-2.715l3.011-18.82h4.329L131.458,56.378z
				 M124.71,50.409h2.85l-1.425-9.518L124.71,50.409z"/>
			<path fill="#FFFFFF" d="M141.593,42.209v2.447c0,3.011-1.451,4.651-4.409,4.651h-1.397v7.071h-2.958v-18.82h4.355
				C140.142,37.558,141.593,39.198,141.593,42.209z M135.786,40.246v6.372h1.397c0.941,0,1.452-0.43,1.452-1.774v-2.823
				c0-1.344-0.511-1.775-1.452-1.775H135.786z"/>
			<path fill="#FFFFFF" d="M151.862,42.209v2.447c0,3.011-1.451,4.651-4.409,4.651h-1.397v7.071h-2.958v-18.82h4.355
				C150.411,37.558,151.862,39.198,151.862,42.209z M146.056,40.246v6.372h1.397c0.941,0,1.452-0.43,1.452-1.774v-2.823
				c0-1.344-0.511-1.775-1.452-1.775H146.056z"/>
			<path fill="#FFFFFF" d="M159.551,56.378c-0.161-0.484-0.269-0.78-0.269-2.312v-2.958c0-1.748-0.592-2.393-1.936-2.393h-1.021
				v7.663h-2.958v-18.82h4.463c3.065,0,4.383,1.425,4.383,4.329v1.479c0,1.936-0.618,3.199-1.936,3.818
				c1.479,0.618,1.963,2.043,1.963,4.006v2.904c0,0.914,0.026,1.586,0.322,2.285H159.551z M156.325,40.246v5.781h1.156
				c1.102,0,1.774-0.484,1.774-1.99v-1.855c0-1.344-0.457-1.936-1.506-1.936H156.325z"/>
			<path fill="#FFFFFF" d="M167.132,45.489h4.06v2.688h-4.06v5.512h5.108v2.688h-8.066v-18.82h8.066v2.688h-5.108V45.489z"/>
			<path fill="#FFFFFF" d="M176.701,42.747v13.631h-2.661v-18.82h3.71l3.038,11.265V37.558h2.635v18.82h-3.038L176.701,42.747z"/>
			<path fill="#FFFFFF" d="M184.685,37.558h9.142v2.688h-3.092v16.132h-2.958V40.246h-3.092V37.558z"/>
			<path fill="#FFFFFF" d="M195.115,37.558h2.958v18.82h-2.958V37.558z"/>
			<path fill="#FFFFFF" d="M208.8,49.361v2.5c0,3.011-1.506,4.731-4.409,4.731c-2.904,0-4.41-1.721-4.41-4.731v-9.787
				c0-3.011,1.506-4.732,4.41-4.732c2.903,0,4.409,1.721,4.409,4.732v1.828h-2.797v-2.017c0-1.344-0.591-1.855-1.532-1.855
				c-0.94,0-1.532,0.511-1.532,1.855v10.163c0,1.344,0.592,1.828,1.532,1.828c0.941,0,1.532-0.484,1.532-1.828v-2.688H208.8z"/>
			<path fill="#FFFFFF" d="M213.558,45.489h4.06v2.688h-4.06v5.512h5.108v2.688H210.6v-18.82h8.066v2.688h-5.108V45.489z"/>
			<path fill="#FFFFFF" d="M224.472,37.343c2.877,0,4.355,1.721,4.355,4.732v0.591h-2.796v-0.78c0-1.344-0.538-1.855-1.479-1.855
				c-0.94,0-1.479,0.511-1.479,1.855c0,3.872,5.78,4.598,5.78,9.975c0,3.011-1.505,4.731-4.409,4.731
				c-2.903,0-4.409-1.721-4.409-4.731v-1.156h2.796v1.344c0,1.344,0.592,1.828,1.533,1.828c0.94,0,1.532-0.484,1.532-1.828
				c0-3.872-5.78-4.598-5.78-9.975C220.116,39.063,221.595,37.343,224.472,37.343z"/>
			<path fill="#FFFFFF" d="M233.505,56.378h-2.958v-18.82h2.958v8.066h3.36v-8.066h3.012v18.82h-3.012v-8.066h-3.36V56.378z"/>
			<path fill="#FFFFFF" d="M242.025,37.558h2.958v18.82h-2.958V37.558z"/>
			<path fill="#FFFFFF" d="M255.897,42.209v2.447c0,3.011-1.451,4.651-4.409,4.651h-1.397v7.071h-2.958v-18.82h4.355
				C254.446,37.558,255.897,39.198,255.897,42.209z M250.091,40.246v6.372h1.397c0.941,0,1.452-0.43,1.452-1.774v-2.823
				c0-1.344-0.511-1.775-1.452-1.775H250.091z"/>
			<path fill="#FFFFFF" d="M261.382,37.343c2.877,0,4.355,1.721,4.355,4.732v0.591h-2.796v-0.78c0-1.344-0.538-1.855-1.479-1.855
				c-0.94,0-1.479,0.511-1.479,1.855c0,3.872,5.78,4.598,5.78,9.975c0,3.011-1.505,4.731-4.409,4.731
				c-2.903,0-4.409-1.721-4.409-4.731v-1.156h2.796v1.344c0,1.344,0.592,1.828,1.533,1.828c0.94,0,1.532-0.484,1.532-1.828
				c0-3.872-5.78-4.598-5.78-9.975C257.026,39.063,258.505,37.343,261.382,37.343z"/>
		</g>
	</g>
</g>
</svg>
