<?xml version="1.0" encoding="utf-8"?>
<!-- Generator: Adobe Illustrator 16.0.3, SVG Export Plug-In . SVG Version: 6.00 Build 0)  -->
<!DOCTYPE svg PUBLIC "-//W3C//DTD SVG 1.1//EN" "http://www.w3.org/Graphics/SVG/1.1/DTD/svg11.dtd">
<svg version="1.1" id="Layer_1" xmlns="http://www.w3.org/2000/svg" xmlns:xlink="http://www.w3.org/1999/xlink" x="0px" y="0px"
	 width="280px" height="150px" viewBox="0 0 280 150" enable-background="new 0 0 280 150" xml:space="preserve">
<g>
	<g>
		<g>
			<g>
				<path fill="#EEC12F" d="M58.045,147.258c0,1.59-1.231,2.742-2.748,2.742l0,0c-1.526,0-2.758-1.152-2.758-2.742v-4.664
					c0-1.607,1.231-2.758,2.758-2.758l0,0c1.517,0,2.748,1.15,2.748,2.758V147.258z"/>
				<path fill="#EEC12F" d="M63.25,147.258c0,1.59-1.231,2.742-2.739,2.742l0,0c-1.506,0-2.737-1.152-2.737-2.742v-4.664
					c0-1.607,1.231-2.758,2.737-2.758l0,0c1.508,0,2.739,1.15,2.739,2.758V147.258z"/>
				<path fill="#EEC12F" d="M68.507,147.258c0,1.59-1.233,2.742-2.764,2.742l0,0c-1.528,0-2.762-1.152-2.762-2.742v-4.664
					c0-1.607,1.234-2.758,2.762-2.758l0,0c1.53,0,2.764,1.15,2.764,2.758V147.258z"/>
			</g>
			<g>
				<path fill="#EEC12F" d="M39.606,147.258c0,1.59-1.232,2.742-2.744,2.742l0,0c-1.507,0-2.737-1.152-2.737-2.742v-4.664
					c0-1.607,1.23-2.758,2.737-2.758l0,0c1.512,0,2.744,1.15,2.744,2.758V147.258z"/>
				<path fill="#EEC12F" d="M44.867,147.258c0,1.59-1.233,2.742-2.764,2.742l0,0c-1.528,0-2.764-1.152-2.764-2.742v-4.664
					c0-1.607,1.235-2.758,2.764-2.758l0,0c1.531,0,2.764,1.15,2.764,2.758V147.258z"/>
				<path fill="#EEC12F" d="M50.113,147.258c0,1.59-1.23,2.742-2.75,2.742l0,0c-1.528,0-2.764-1.152-2.764-2.742v-4.664
					c0-1.607,1.235-2.758,2.764-2.758l0,0c1.52,0,2.75,1.15,2.75,2.758V147.258z"/>
			</g>
		</g>
		<path fill="#245671" d="M93.292,39.412C72.54,51.566,51.397,49.99,51.334,49.99c0.001,0,0.002,0,0.002,0h-0.004h-0.001h0.001
			c-0.116,0-21.245,1.576-41.963-10.578c0,0-3.347,24.908,1.738,42.219c0,0,10.945-25.452,40.225-31.641
			c29.27,6.189,40.207,31.641,40.207,31.641C96.599,64.32,93.292,39.412,93.292,39.412z"/>
		<path fill="#36C0D3" d="M7.052,86.553c0-24.462,19.823-44.285,44.278-44.285c24.444,0,44.264,19.823,44.264,44.285
			c0,24.418-19.82,59.594-44.264,59.594C26.875,146.146,7.052,110.971,7.052,86.553z"/>
		<path fill="#245671" d="M83.203,70.763c-2.052-8.609-9.157-14.844-16.831-14.844c-1.146,0-2.294,0.13-3.394,0.39
			c-4.328,1.061-7.915,3.993-10.042,8.306c-0.763,1.501-1.307,3.074-1.604,4.737c-0.363-1.663-0.894-3.236-1.625-4.737
			c-2.177-4.313-5.737-7.245-10.095-8.306c-1.099-0.26-2.205-0.39-3.323-0.39c-7.741,0-14.825,6.235-16.89,14.844
			c-1.13,4.764-0.619,9.624,1.432,13.725c2.128,4.256,5.717,7.258,10.04,8.33c1.102,0.258,2.25,0.309,3.383,0.309l0,0
			c7.683,0,14.777-6.201,16.834-14.775c0.112-0.277,0.147-0.611,0.243-0.959c0.025,0.348,0.127,0.682,0.169,0.959
			c2.064,8.574,9.151,14.775,16.897,14.775c0,0,0,0,0.001,0c1.13,0,2.229-0.051,3.324-0.309c4.37-1.072,7.926-4.074,10.105-8.33
			C83.879,80.387,84.359,75.527,83.203,70.763z"/>
		<g>
			<g>
				<g>
					<path fill="#FFFFFF" d="M79.921,73.222c1.98,8.247-2.052,16.336-8.978,17.977c-6.91,1.643-14.135-3.705-16.142-11.977
						c-1.952-8.194,2.036-16.249,8.989-17.891C70.736,59.662,77.947,65.002,79.921,73.222z"/>
				</g>
				<g>
					<path fill="#603813" d="M66.754,78.588c-1.325,0.311-2.698-0.783-3.1-2.332c-0.137-0.572-0.132-1.17,0.031-1.674
						c-0.616-0.136-1.271-0.152-1.945,0.009c-2.76,0.664-4.377,3.845-3.575,7.16c0.777,3.313,3.684,5.422,6.446,4.803
						c2.761-0.691,4.375-3.869,3.574-7.186c-0.102-0.469-0.286-0.984-0.445-1.33C67.468,78.289,67.111,78.449,66.754,78.588z"/>
				</g>
			</g>
			<g>
				<g>
					<path fill="#FFFFFF" d="M22.701,73.222c-1.973,8.247,2.032,16.336,8.967,17.977c6.956,1.643,14.182-3.705,16.131-11.977
						c2.001-8.194-2.044-16.249-8.962-17.891C31.921,59.662,24.69,65.002,22.701,73.222z"/>
				</g>
				<g>
					<path fill="#603813" d="M35.896,78.588c1.318,0.311,2.704-0.783,3.064-2.332c0.148-0.572,0.11-1.17-0.043-1.674
						c0.668-0.136,1.329-0.152,1.966,0.009c2.797,0.664,4.395,3.845,3.614,7.16c-0.801,3.313-3.687,5.422-6.481,4.803
						c-2.79-0.691-4.389-3.869-3.607-7.186c0.129-0.469,0.283-0.984,0.514-1.33C35.193,78.289,35.496,78.449,35.896,78.588z"/>
				</g>
			</g>
		</g>
		<polygon fill="#EEC12F" points="58.966,90.652 51.331,103.506 43.687,90.652 		"/>
		<g>
			<path fill="#245671" d="M31.778,113.982c0,0,2.026,1.279,3.618,0C35.396,113.982,33.557,117.053,31.778,113.982z"/>
			<path fill="#245671" d="M39.572,113.982c0,0,2.025,1.279,3.617,0C43.189,113.982,41.352,117.053,39.572,113.982z"/>
			<path fill="#245671" d="M47.366,113.982c0,0,2.026,1.279,3.617,0C50.983,113.982,49.145,117.053,47.366,113.982z"/>
			<path fill="#245671" d="M55.16,113.982c0,0,2.026,1.279,3.617,0C58.776,113.982,56.938,117.053,55.16,113.982z"/>
			<path fill="#245671" d="M62.953,113.982c0,0,2.026,1.279,3.615,0C66.567,113.982,64.731,117.053,62.953,113.982z"/>
			<path fill="#245671" d="M70.746,113.982c0,0,2.026,1.279,3.617,0C74.363,113.982,72.524,117.053,70.746,113.982z"/>
			<path fill="#245671" d="M35.396,119.508c0,0,2.024,1.227,3.652,0C39.048,119.508,37.175,122.584,35.396,119.508z"/>
			<path fill="#245671" d="M43.189,119.508c0,0,2.024,1.227,3.65,0C46.839,119.508,44.968,122.584,43.189,119.508z"/>
			<path fill="#245671" d="M50.983,119.508c0,0,2.022,1.227,3.649,0C54.632,119.508,52.763,122.584,50.983,119.508z"/>
			<path fill="#245671" d="M58.776,119.508c0,0,2.022,1.227,3.648,0C62.424,119.508,60.556,122.584,58.776,119.508z"/>
			<path fill="#245671" d="M66.567,119.508c0,0,2.024,1.227,3.648,0C70.215,119.508,68.349,122.584,66.567,119.508z"/>
			<path fill="#245671" d="M38.217,124.563c0,0,2.033,1.336,3.624,0C41.841,124.563,39.995,127.598,38.217,124.563z"/>
			<path fill="#245671" d="M46.01,124.563c0,0,2.033,1.336,3.625,0C49.635,124.563,47.788,127.598,46.01,124.563z"/>
			<path fill="#245671" d="M53.803,124.563c0,0,2.034,1.336,3.624,0C57.426,124.563,55.582,127.598,53.803,124.563z"/>
			<path fill="#245671" d="M61.597,124.563c0,0,2.033,1.336,3.624,0C65.221,124.563,63.375,127.598,61.597,124.563z"/>
			<path fill="#245671" d="M41.598,129.203c0,0,2.022,1.227,3.615,0C45.213,129.203,43.379,132.217,41.598,129.203z"/>
			<path fill="#245671" d="M49.392,129.203c0,0,2.022,1.227,3.613,0C53.005,129.203,51.171,132.217,49.392,129.203z"/>
			<path fill="#245671" d="M57.186,129.203c0,0,2.022,1.227,3.613,0C60.799,129.203,58.964,132.217,57.186,129.203z"/>
			<path fill="#245671" d="M44.538,133.504c0,0,2.033,1.213,3.667,0C48.204,133.504,46.317,136.576,44.538,133.504z"/>
			<path fill="#245671" d="M52.33,133.504c0,0,2.032,1.213,3.667,0C55.997,133.504,54.111,136.576,52.33,133.504z"/>
			<path fill="#245671" d="M48.718,138.232c0,0,2.022,1.285,3.612,0C52.33,138.232,50.499,141.242,48.718,138.232z"/>
		</g>
		<g>
			<polygon fill="#BF4234" points="50.53,43.826 0.593,21.694 51.296,2.6 102,21.694 			"/>
			<path fill="#F05647" d="M50.53,43.511L22.021,30.858V53.27c3.062-3.553,7.572-5.766,12.596-5.766
				c5.795,0,13.585,2.943,16.561,7.435c2.955-4.491,10.867-7.435,16.691-7.435c5.079,0,9.626,2.278,12.703,5.902V30.583
				L50.53,43.511z"/>
			<path fill="#EEC12F" d="M22.737,58.167V31.703l28.748-7.819l-0.399-1.365l-29.781,8.119v27.529
				c-1.1,0.773-3.062,3.221-3.062,10.681h3.779H25.8C25.8,61.389,23.836,58.939,22.737,58.167z"/>
		</g>
		<path fill="#603813" d="M91.54,72.675H80.742c-0.01,0-0.064,0.006-0.127,0.011c-0.006-0.011-0.008-0.011-0.01-0.044
			c-1.789-7.618-8.008-13.11-14.733-13.11c-0.965,0-1.93,0.102-2.852,0.299c-3.733,0.934-6.768,3.437-8.658,7.172
			c-0.822,1.659-1.367,3.47-1.615,5.314h-3.185c-0.262-1.844-0.807-3.653-1.627-5.314c-1.873-3.735-4.925-6.238-8.637-7.172
			c-0.94-0.198-1.9-0.299-2.862-0.299c-6.719,0-12.941,5.492-14.749,13.11c-0.001,0.033-0.003,0.033-0.004,0.033H11.149
			c-1.134,0-2.045,0.96-2.045,2.054c0,1.15,0.911,2.017,2.045,2.017h9.995c-0.03,2.916,0.545,5.703,1.774,8.145
			c1.871,3.656,4.923,6.244,8.637,7.135c0.937,0.236,1.896,0.27,2.856,0.27c0.001,0,0,0,0.001,0c6.725,0,12.951-5.471,14.752-13.127
			c0.228-0.816,0.378-1.717,0.433-2.654h3.108c0.064,0.938,0.215,1.838,0.423,2.654c1.82,7.656,8.045,13.127,14.759,13.127
			c0.958,0,1.917-0.033,2.865-0.27c3.701-0.891,6.77-3.479,8.623-7.135c1.229-2.441,1.818-5.232,1.776-8.145H91.54
			c1.098,0,2.051-0.867,2.051-2.017C93.59,73.636,92.637,72.675,91.54,72.675z M46.287,78.553
			c-1.503,6.275-6.504,10.779-11.876,10.779c-0.7,0-1.432-0.041-2.156-0.248c-2.84-0.619-5.231-2.629-6.677-5.541
			c-1.505-3.008-1.848-6.623-1.017-10.2c1.505-6.273,6.509-10.856,11.872-10.856c0.703,0,1.438,0.078,2.163,0.245
			c2.838,0.686,5.229,2.703,6.679,5.579C46.781,71.317,47.118,74.979,46.287,78.553z M76.735,83.543
			c-1.463,2.912-3.837,4.922-6.675,5.541c-0.725,0.207-1.479,0.248-2.172,0.248c-5.359,0-10.375-4.504-11.882-10.779
			c-0.829-3.574-0.472-7.235,1.031-10.242c1.437-2.876,3.841-4.894,6.68-5.579c0.725-0.167,1.441-0.245,2.154-0.245
			c5.372,0,10.358,4.583,11.862,10.858C78.564,76.92,78.237,80.535,76.735,83.543z"/>
		<path fill="#245671" d="M18.19,89.926c-4.21-1.729-14.959-0.023-17.545,8.617c-4.137,13.846,12.398,33.512,27.494,29.846
			c0,0-6.957-5.855-3.416-14.846C28.264,104.551,28.268,94.137,18.19,89.926z"/>
		<g>
			<g>
				<path fill="#FFFFFF" d="M96.187,136.318l2.64-8.328l2.679-8.352c0,0-13.804,1.016-48.259-14.492l-2.229,6.965l-2.232,6.98
					C85.895,126.271,96.187,136.318,96.187,136.318z"/>
			</g>
			<g>
				<path fill="#BBBDBF" d="M48.619,119.09c-1.641-0.545-1.961-4.1-0.741-7.928c1.22-3.832,3.542-6.563,5.188-6.018
					c1.64,0.516,1.977,4.064,0.747,7.928C52.583,116.902,50.26,119.631,48.619,119.09z"/>
			</g>
			<g>
				<g>
					<path fill="#FFFFFF" d="M48.055,111.828c0.152-0.508,0.35-1.021,0.567-1.516c0.739-1.611,1.696-2.705,2.511-2.711
						c0.362-0.057,0.719,0.037,0.938,0.414c0.632,0.861,0.422,2.932-0.418,4.787c-0.455,1.094-1.114,1.744-1.667,1.826
						c-0.272,0.045-0.511-0.145-0.683-0.365c-0.42-0.641-0.207-2.051,0.271-3.104c0.313-0.793,0.745-1.18,1.121-1.236
						c0.235-0.029,0.386,0.109,0.521,0.229c0.315,0.463,0.142,1.445-0.141,2.104c-0.246,0.547-0.54,0.82-0.816,0.82
						c-0.141,0-0.283-0.002-0.409-0.197l0.405-0.273c0.003-0.01,0.182-0.076,0.399-0.541c0.294-0.672,0.307-1.449,0.17-1.639
						c-0.021-0.084-0.035-0.08-0.057-0.08c-0.144,0.016-0.486,0.271-0.78,0.98c-0.502,1.137-0.551,2.297-0.28,2.668
						c0.095,0.174,0.159,0.176,0.261,0.174c0.288-0.006,0.831-0.545,1.251-1.563c0.824-1.77,0.94-3.65,0.489-4.318
						c-0.148-0.156-0.336-0.299-0.511-0.266c-0.533,0.084-1.387,0.828-2.149,2.438c-1.168,2.617-1.517,5.818-0.704,6.957
						c0.264,0.309,0.545,0.434,0.94,0.367c1.096-0.061,2.556-1.705,3.425-3.867c1.332-3.184,1.367-6.082,0.067-7.674l0.352-0.275
						c1.423,1.643,1.427,4.697,0,8.201c-0.951,2.189-2.536,3.961-3.824,4.104c-0.546,0.023-0.979-0.154-1.347-0.58
						C47.234,116.631,47.259,114.182,48.055,111.828z"/>
				</g>
			</g>
			<g>
				<path fill="#BBBDBF" d="M101.506,119.639c1.645,0.545,1.789,4.648,0.288,9.297c-1.449,4.643-3.966,7.93-5.606,7.383
					c-1.64-0.545-1.775-4.648-0.311-9.297C97.312,122.387,99.864,119.092,101.506,119.639z"/>
			</g>
			<g>
				<g>
					<path fill="#FFFFFF" d="M101.656,128.115c-0.16,0.602-0.409,1.281-0.683,1.91c-0.82,1.916-1.853,3.186-2.7,3.287
						c-0.373,0.061-0.718-0.047-0.925-0.502c-0.576-0.885-0.247-3.406,0.701-5.643c0.559-1.244,1.224-2.066,1.815-2.213
						c0.275-0.07,0.495,0.129,0.672,0.402c0.423,0.65,0.086,2.457-0.459,3.674c-0.347,0.881-0.832,1.428-1.222,1.531
						c-0.207,0.014-0.378-0.09-0.488-0.266c-0.309-0.541-0.122-1.656,0.278-2.49c0.245-0.615,0.549-1.037,0.823-1.057
						c0.157-0.002,0.31,0.02,0.411,0.264l-0.411,0.281c0,0.002-0.195,0.184-0.409,0.674c-0.41,0.908-0.417,1.775-0.289,1.959
						c0.016,0.094,0.024,0.092,0.053,0.09c0.149-0.039,0.508-0.385,0.821-1.146c0.602-1.342,0.723-2.787,0.489-3.217
						c-0.118-0.16-0.207-0.17-0.254-0.148c-0.313,0.08-0.896,0.693-1.39,1.822c-0.94,2.195-1.161,4.457-0.741,5.162
						c0.132,0.271,0.32,0.287,0.497,0.275c0.541-0.021,1.496-1.066,2.317-3.008c1.367-3.111,1.874-6.84,1.094-8.191
						c-0.209-0.291-0.521-0.521-0.891-0.408c-1.139,0.176-2.706,2.275-3.713,4.766c-1.546,3.832-1.72,7.313-0.498,9.023
						l-0.368,0.305c-1.366-1.861-1.226-5.463,0.423-9.596c1.083-2.707,2.847-4.814,4.112-5.043c0.565-0.154,1.06,0.117,1.346,0.664
						C102.762,122.438,102.606,125.268,101.656,128.115z"/>
				</g>
			</g>
			<g>
				<path fill="#005C7A" d="M79.415,115.092c-1.934-0.547-3.904-1.172-5.982-1.744l-3.47,10.865
					c2.069,0.621,4.075,1.309,5.959,1.988L79.415,115.092z"/>
			</g>
		</g>
		<path fill="#245671" d="M84.418,89.926c4.212-1.729,14.924-0.023,17.511,8.617c4.162,13.846-12.364,33.512-27.479,29.846
			c0,0,6.968-5.855,3.418-14.846C74.315,104.551,74.315,94.137,84.418,89.926z"/>
	</g>
	<g>
		<path fill="#36C0D3" d="M261.327,2.6h-133.56c-10.309,0-18.667,5.962-18.667,13.253v38.102v21.579v40.277l18.016-27.066
			c0.241,0,0.409,0,0.651,0h133.56c10.315,0,18.674-5.926,18.674-13.211v-59.68C280,8.562,271.642,2.6,261.327,2.6z"/>
		<g>
			<path fill="#FFFFFF" d="M132.696,42.099c-1.512,0-2.879-0.549-3.973-1.648c-1.093-1.099-1.639-2.383-1.639-3.934V23.744
				c0-1.573,0.548-2.878,1.648-3.968c1.099-1.092,2.451-1.638,3.963-1.638c1.592,0,2.885,0.548,3.966,1.642
				c1.076,1.095,1.616,2.412,1.616,3.964V26.4h-3.648v-2.758c0-0.569-0.167-1.01-0.576-1.408c-0.41-0.404-0.886-0.623-1.455-0.623
				s-1.007,0.219-1.415,0.623c-0.409,0.398-0.586,0.839-0.586,1.408v12.82c0,0.564,0.177,1.079,0.586,1.463
				c0.408,0.383,0.846,0.583,1.415,0.583s1.045-0.2,1.455-0.58c0.409-0.384,0.576-0.896,0.576-1.462v-4.581h-1.942v-3.552h5.59
				v8.184c0,1.579-0.551,2.885-1.632,3.964C135.554,41.559,134.247,42.099,132.696,42.099z"/>
			<path fill="#FFFFFF" d="M146.969,18.401c1.92,0,3.377,0.542,4.362,1.621c0.803,0.942,1.125,2.237,1.125,3.964v3.395
				c0,1.668-0.563,3.063-1.874,4.189l2.678,10.22h-3.824l-2.188-8.797c-0.051,0-0.218,0-0.279,0h-2.067v8.797h-3.523v-23.39H146.969
				z M149.082,24.021c0-1.366-0.739-2.049-2.08-2.049h-2.1v7.516h2.1c0.569,0,1.062-0.193,1.466-0.586
				c0.422-0.392,0.614-0.914,0.614-1.463V24.021z"/>
			<path fill="#FFFFFF" d="M160.641,36.447l-0.849,5.344h-3.755l4.057-23.39h4.846l3.902,23.39h-3.73l-0.83-5.344H160.641z
				 M162.496,23.747l-1.308,9.247h2.583L162.496,23.747z"/>
			<path fill="#FFFFFF" d="M182.924,36.187c0,1.556-0.539,2.871-1.618,3.963c-1.08,1.094-2.354,1.641-3.985,1.641h-5.471V18.374
				h5.471c1.637,0,2.932,0.55,4.001,1.648c1.067,1.1,1.603,2.384,1.603,3.935V36.187z M175.399,38.322h2.1
				c0.569,0,0.999-0.222,1.454-0.632c0.29-0.409,0.554-0.849,0.554-1.399V24.019c0-0.551-0.268-1.063-0.569-1.456
				c-0.464-0.392-0.89-0.592-1.438-0.592h-2.1V38.322z"/>
			<path fill="#FFFFFF" d="M191.556,42.063c-1.509,0-2.804-0.546-3.882-1.639c-1.079-1.083-1.62-2.367-1.62-3.938V18.401h3.403
				v18.059c0,0.547,0.168,1.053,0.629,1.436c0.355,0.382,0.9,0.608,1.449,0.608c0.547,0,1.038-0.226,1.367-0.608
				c0.437-0.383,0.587-0.888,0.587-1.436V18.401h3.761v18.085c0,1.605-0.549,2.904-1.648,3.964
				C194.502,41.517,193.176,42.063,191.556,42.063z"/>
			<path fill="#FFFFFF" d="M204.136,36.447l-0.845,5.344h-3.629l3.914-23.39h4.912l3.897,23.39h-3.648l-0.829-5.344H204.136z
				 M206.026,23.747l-1.341,9.247h2.703L206.026,23.747z"/>
			<path fill="#FFFFFF" d="M215.869,21.953h-3.827v-3.552h11.062v3.552h-3.689v19.838h-3.545V21.953z"/>
			<path fill="#FFFFFF" d="M225.984,41.791V18.374h10.053v3.552h-6.51v6.377h4.685v3.552h-4.685v6.382h6.51v3.553H225.984z"/>
			<path fill="#FFFFFF" d="M132.688,49.988c1.717,0,3.089,0.547,4.107,1.637c0.914,1,1.429,2.329,1.429,3.964v3.396
				c0,1.529-0.547,2.865-1.616,3.964c-1.068,1.099-2.417,1.648-3.919,1.648h-2.051v8.791h-3.553v-23.4H132.688z M134.787,55.598
				c0-0.567-0.186-1.097-0.555-1.462c-0.342-0.353-0.862-0.569-1.446-0.569h-2.149v7.495h2.149c0.569,0,1.005-0.163,1.404-0.556
				c0.411-0.402,0.597-0.914,0.597-1.483V55.598z"/>
			<path fill="#FFFFFF" d="M146.642,49.988c1.968,0,3.341,0.547,4.314,1.637c0.806,0.942,1.21,2.237,1.21,3.964v3.396
				c0,1.665-0.6,3.033-1.918,4.189l2.671,10.214h-3.818l-2.132-8.791c-0.145,0-0.268,0-0.327,0h-2.113v8.791h-3.522v-23.4H146.642z
				 M148.709,55.598c0-1.353-0.646-2.031-2.008-2.031h-2.173v7.495h2.173c0.547,0,1.094-0.163,1.394-0.556
				c0.464-0.402,0.614-0.914,0.614-1.483V55.598z"/>
			<path fill="#FFFFFF" d="M160.915,49.692c1.592,0,2.892,0.55,3.98,1.648c1.09,1.099,1.635,2.395,1.635,3.965V68.06
				c0,1.591-0.551,2.89-1.65,3.979c-1.098,1.089-2.394,1.634-3.965,1.634c-1.59,0-2.882-0.549-3.963-1.649
				c-1.079-1.098-1.618-2.393-1.618-3.963V55.305c0-1.591,0.549-2.89,1.648-3.979S159.366,49.692,160.915,49.692z M162.829,55.187
				c0-0.549-0.212-1.006-0.547-1.388c-0.429-0.394-0.863-0.614-1.433-0.614s-1.028,0.221-1.483,0.614
				c-0.365,0.382-0.627,0.839-0.627,1.388V68.03c0,0.547,0.262,1.056,0.627,1.438c0.455,0.382,0.914,0.611,1.483,0.611
				s1.004-0.229,1.433-0.611c0.335-0.382,0.547-0.892,0.547-1.438V55.187z"/>
			<path fill="#FFFFFF" d="M175.133,73.702c-1.512,0-2.811-0.549-3.899-1.648c-1.09-1.099-1.635-2.386-1.635-3.935V55.32
				c0-1.546,0.551-2.871,1.65-3.964c1.097-1.093,2.392-1.639,3.884-1.639c1.641,0,2.965,0.546,4.044,1.64
				c1.078,1.093,1.618,2.437,1.618,3.964v2.683h-3.731v-2.758c0-0.57-0.155-1.02-0.565-1.429c-0.374-0.41-0.822-0.603-1.384-0.603
				c-0.569,0-1.075,0.193-1.469,0.603c-0.429,0.409-0.614,0.859-0.614,1.429V68.06c0,0.569,0.186,1.063,0.614,1.468
				c0.394,0.383,0.899,0.555,1.469,0.555c0.562,0,1.01-0.171,1.384-0.552c0.41-0.407,0.565-0.895,0.565-1.462v-4.581h-1.931v-3.552
				h5.662v8.184c0,1.55-0.549,2.885-1.648,3.964C178.047,73.162,176.763,73.702,175.133,73.702z"/>
			<path fill="#FFFFFF" d="M189.369,49.988c2.003,0,3.495,0.547,4.356,1.637c0.816,0.942,1.248,2.237,1.248,3.964v3.396
				c0,1.665-0.679,3.033-1.873,4.189l2.547,10.214h-3.818l-2.117-8.791c-0.09,0-0.164,0-0.343,0h-1.949v8.791h-3.536v-23.4H189.369z
				 M191.536,55.598c0-1.353-0.686-2.031-2.019-2.031h-2.098v7.495h2.098c0.569,0,1.006-0.163,1.467-0.556
				c0.301-0.402,0.552-0.914,0.552-1.483V55.598z"/>
			<path fill="#FFFFFF" d="M203.03,68.03l-0.832,5.358h-3.645l3.924-23.4h4.918l3.883,23.4h-3.648l-0.831-5.358H203.03z
				 M204.932,55.321l-1.355,9.275h2.71L204.932,55.321z"/>
			<path fill="#FFFFFF" d="M217.783,73.388h-3.546V49.977h5.156l3.298,16.825l3.094-16.825h4.853v23.411h-3.532V58.669
				l-3.035,14.718h-2.81l-3.478-14.659V73.388z"/>
			<path fill="#FFFFFF" d="M237.401,73.388h-3.523V49.977h4.999l3.302,16.825l3.214-16.825h4.883v23.411h-3.525V58.669l-3.1,14.718
				h-2.894l-3.355-14.659V73.388z"/>
			<path fill="#FFFFFF" d="M253.363,73.388V49.977h10.076v3.552h-6.542v6.376h4.828v3.552h-4.828v6.377h6.542v3.552H253.363z"/>
		</g>
	</g>
</g>
</svg>
